<?xml version="1.0" encoding="utf-8" ?>
<svg xmlns="http://www.w3.org/2000/svg" xmlns:xlink="http://www.w3.org/1999/xlink" width="512" height="512">
	<path fill="white" d="M255.635 14.3809L315.129 14.2533C327.182 14.2601 328.87 15.7808 328.889 29.0197L328.928 53.125C329.007 59.1864 329.831 66.9787 320.923 67.7889C314.931 68.3339 308.49 67.8903 302.453 67.8911L265.111 67.8373C264.679 68.9412 264.858 70.7789 264.853 72L264.864 82.6365L444 192.997C449.121 196.122 463.287 201.816 463.479 208.914C463.718 217.745 457.478 218.79 450.961 218.716L441.571 218.783L441.491 399.074C445.211 398.966 460.849 398.35 463.292 399.632L463.625 399.823C469.628 403.215 468.753 407.686 468.759 413.654C468.767 421.789 468.295 430.194 468.902 438.28C473.393 438.174 479.257 436.645 483.402 438.768L483.75 438.952C485.357 439.781 486.693 441.01 487.643 442.555L487.85 442.901C489.773 446.006 488.747 451.138 488.75 454.632L488.845 476.215C494.003 476.702 496.481 478.994 496.65 484.395C496.963 494.379 488.897 495.044 481.256 494.977L320.625 494.938L33.4704 494.93C29.7289 494.927 25.8978 495.189 22.2266 494.413C14.4444 492.768 13.522 479.174 20.2794 475.87C20.8286 475.602 22.4401 475.664 23.1027 475.609L23.0217 446.098C23.7279 437.808 30.6902 437.419 37.4524 438.073L43.0994 438.546L43.235 415.162C43.2373 411.53 42.1929 406.631 44.4534 403.516L44.7436 403.125C46.141 401.201 48.3209 399.763 50.6431 399.23L50.9975 399.153C55.9805 398.011 64.9346 399.308 70.4998 398.951L70.4494 219.182C65.4829 218.665 59.5471 220.08 54.7381 218.35L54.1243 218.122C49.5489 216.192 47.3539 210.759 49.4375 206.234C50.7743 203.331 54.4463 201.529 57.0502 199.846L239.877 86.7936C243.431 84.4641 247.236 83.6857 247.233 80.2032L247.215 27.6484C247.232 21.2299 247.45 15.2592 255.635 14.3809ZM88.5474 218.455L88.5305 399.171L216.252 398.981L216.253 331.963C216.265 321.145 217.215 318.74 229.827 318.745L287.308 318.737C296.231 318.802 295.743 327.486 295.745 333.355L295.737 399.128L343.375 398.963L423.517 398.896L423.512 218.572L88.5474 218.455ZM255.008 98.375L97.75 195.79C94.9295 197.532 93.0692 199.242 90.6548 200.755L256.875 200.753L404.103 200.742C409.594 200.737 415.725 201.271 421.121 200.39C417.722 197.161 412.824 194.799 408.79 192.375L261.915 102.033C259.889 100.798 257.778 99.13 255.633 98.164L255.008 98.375ZM41.4336 455.875C40.4419 457.01 41.0284 458.84 41.0191 460.262L40.9848 476.855L470.459 476.694C471.013 476.077 470.746 473.171 470.746 472.186L470.755 461.684C470.759 459.837 470.603 457.831 470.896 456.015L41.4336 455.875ZM60.9474 416.751L60.9053 438.065L450.257 437.998C450.769 436.077 450.428 433.467 450.419 431.469L450.374 417.001L60.9474 416.751ZM234.263 337.243L234.26 395.314C234.26 396.358 234.028 398.143 234.36 399.102L277.52 398.977L277.814 341.007C277.806 339.87 278.061 338.084 277.629 337.084L234.263 337.243ZM300.39 32.5773L264.805 32.6883L264.721 49.7166L274.687 49.6171L310.791 49.536L310.869 32.4726L300.39 32.5773Z"/>
	<path fill="white" d="M228.084 239.361L274.746 239.247C278.324 239.248 283.231 238.4 286.455 240.305L286.75 240.482C290.767 242.811 291.168 245.216 291.071 249.426L290.979 280.641C290.981 284.538 292.17 290.123 290.195 293.693L289.76 294.448C288.325 296.616 286.061 297.778 283.612 298.343L234.699 298.348C232.061 298.373 228.517 298.853 226.083 297.889L225.75 297.752C219.386 295.211 220.607 288.445 220.62 283.02L220.607 254.216C220.587 251.987 220.371 249.544 220.688 247.342L220.743 247C221.339 243.056 224.161 240.158 228.084 239.361ZM238.746 257.505L238.763 280.198C239.42 280.504 240.405 280.359 241.128 280.359L263.277 280.356C266.531 280.355 269.846 280.503 273.087 280.247L273.311 279.625L273.292 257.421L238.746 257.505Z"/>
	<path fill="white" d="M120.91 239.348C122.775 239.102 124.882 239.262 126.768 239.26L171.719 239.257C173.481 239.26 175.495 239.112 177.196 239.644L177.5 239.742C186.973 242.585 184.251 252.118 184.234 259.709L184.232 287.322C184.229 288.957 184.298 290.645 183.857 292.236L183.781 292.5C182.918 295.928 179.565 298.057 176.242 298.582L175.92 298.355C173.072 298.688 169.757 298.333 166.863 298.322L128.669 298.324C122.147 298.37 112.983 300.026 112.237 290.122L112.212 289.75C112.011 287.186 112.237 284.585 112.245 282.011L112.236 255.477C112.102 248.033 111.633 240.457 120.91 239.348ZM130.158 257.248L130.216 280.448L166.253 280.509L166.235 257.409L130.158 257.248Z"/>
	<path fill="white" d="M387.62 239.249C388.752 238.794 392.398 239.085 393.621 239.339C401.633 241.003 399.774 250.46 399.744 256.226L399.814 287.107C399.859 291.372 399.617 295.247 395.246 297.488L394.965 297.625C392.318 298.953 389.175 298.427 386.324 298.381L341.313 298.315C335.862 298.427 331.845 298.986 328.767 293.493L328.591 293.174C327.228 290.761 327.744 287.91 327.75 285.25L327.744 255.394C327.744 250.081 326.817 239.941 335.118 239.444L387.62 239.249ZM345.842 257.366L345.895 280.357L381.567 280.489L381.75 257.444L345.842 257.366Z"/>
	<path fill="white" d="M336.685 318.62L389.658 318.686C391.073 318.667 393.012 318.436 394.356 318.847L394.75 319.012C396.483 319.714 398.191 321.508 398.958 323.2L399.073 323.461C399.6 324.597 399.84 325.534 399.869 326.787L399.742 365.255C399.748 371.763 399.293 376.937 390.976 377.878L339.986 377.863C337.823 377.873 334.755 378.273 332.761 377.434L332.499 377.315C326.275 374.61 327.729 366.912 327.731 361.503L327.683 330.602C327.658 326.064 327.605 321.922 332.377 319.536L332.715 319.375C334.064 318.717 335.218 318.674 336.685 318.62ZM345.802 336.922L345.801 352.853C345.801 354.984 345.479 357.742 345.921 359.797L377.977 359.833C379.181 359.849 380.544 359.995 381.729 360.037L381.738 337.112L345.802 336.922Z"/>
	<path fill="white" d="M119.389 318.761L172.849 318.735C175.389 318.739 178.329 318.053 180.456 319.744L180.75 319.984C183.711 322.355 184.306 324.834 184.287 328.398L184.268 353.358C184.275 362.029 187.732 375.199 177.407 377.721L125.277 377.88C112.943 378.233 112.206 374.913 112.241 362.396L112.229 335.243C112.187 332.38 111.654 328.642 112.417 325.896L112.495 325.625C113.507 321.757 115.422 319.857 119.389 318.761ZM130.181 336.761L130.192 359.625C130.642 359.887 164.865 360.067 166.326 360.165L166.278 342.065C166.273 340.892 166.619 337.871 166.112 336.972L130.181 336.761Z"/>
</svg>
